<svg xmlns="http://www.w3.org/2000/svg" viewBox="0 0 490.434 205.467"><defs><style>.cls-1{fill:#080045;}.cls-2{fill:#0084ff;}.cls-3{fill:none;}</style></defs><g id="Layer_2" data-name="Layer 2"><g id="Layer_1-2" data-name="Layer 1"><path class="cls-1" d="M41.274,204.788h-7.35l-4.014-9.556H11.2l-4.071,9.556H0l17.415-39.861H23.86Zm-20.75-31.55-6.785,15.831H27.366Z"/><path class="cls-1" d="M76.114,187.656A22.559,22.559,0,0,1,74.9,195.4a15.191,15.191,0,0,1-3.42,5.57,13.839,13.839,0,0,1-5.343,3.336,21.143,21.143,0,0,1-7.039,1.1,20.708,20.708,0,0,1-6.955-1.1A14.045,14.045,0,0,1,46.826,201a14.735,14.735,0,0,1-3.392-5.456A21.952,21.952,0,0,1,42.247,188V165.21h6.9v22.5q0,5.541,2.672,8.425a9.579,9.579,0,0,0,7.391,2.883,9.714,9.714,0,0,0,7.336-2.771q2.672-2.769,2.672-8.255V165.21h6.9Z"/><path class="cls-1" d="M99.216,204.788H92.205V171.655H79.653V165.21h32.115v6.445H99.216Z"/><path class="cls-1" d="M152.432,192.858a19.914,19.914,0,0,1-4.3,6.531,20.629,20.629,0,0,1-14.927,6.078,21.151,21.151,0,0,1-8.368-1.612A19.636,19.636,0,0,1,114.1,192.971a21.292,21.292,0,0,1,0-15.831,19.885,19.885,0,0,1,4.3-6.531,20.624,20.624,0,0,1,14.926-6.078,21.148,21.148,0,0,1,8.368,1.612,19.639,19.639,0,0,1,10.743,10.883,21.295,21.295,0,0,1,0,15.832ZM145.675,179.6a13.879,13.879,0,0,0-2.77-4.5,13.223,13.223,0,0,0-4.269-3.053,13.683,13.683,0,0,0-10.827-.029,12.807,12.807,0,0,0-4.213,3,13.763,13.763,0,0,0-2.742,4.466,15.529,15.529,0,0,0,0,10.912,13.837,13.837,0,0,0,2.771,4.5,13.15,13.15,0,0,0,4.268,3.052,13.174,13.174,0,0,0,15.04-2.967,13.791,13.791,0,0,0,2.742-4.467,15.529,15.529,0,0,0,0-10.912Z"/><path class="cls-1" d="M166.646,165.21v39.578h-6.9V165.21Z"/><path class="cls-1" d="M202.119,165.21h6.9v39.578H203.2l-21.779-28.157v28.157h-6.9V165.21h6.432l21.16,27.365Z"/><path class="cls-1" d="M222.723,177.592a4.145,4.145,0,0,0,1.445,1.583,11.51,11.51,0,0,0,2.891,1.357q1.842.622,4.676,1.3a44.85,44.85,0,0,1,5.527,1.752,13.817,13.817,0,0,1,4,2.347,9.261,9.261,0,0,1,2.409,3.222,10.522,10.522,0,0,1,.823,4.325,11.682,11.682,0,0,1-1.038,5.033,10.668,10.668,0,0,1-2.888,3.732,12.723,12.723,0,0,1-4.447,2.318,19.524,19.524,0,0,1-5.706.792,24.972,24.972,0,0,1-8.764-1.555,23.906,23.906,0,0,1-7.746-4.778l4.184-4.976a24.291,24.291,0,0,0,5.824,3.817,16.03,16.03,0,0,0,6.672,1.328,8.631,8.631,0,0,0,5.117-1.356,4.292,4.292,0,0,0,1.894-3.676,4.792,4.792,0,0,0-.368-1.922,3.852,3.852,0,0,0-1.361-1.554,11.409,11.409,0,0,0-2.721-1.329,46.093,46.093,0,0,0-4.507-1.3,47.311,47.311,0,0,1-5.639-1.64,14.311,14.311,0,0,1-4.139-2.262,8.988,8.988,0,0,1-2.551-3.279,11.241,11.241,0,0,1-.878-4.692,10.848,10.848,0,0,1,1.009-4.722,11.039,11.039,0,0,1,2.775-3.646,12.331,12.331,0,0,1,4.25-2.347,17.217,17.217,0,0,1,5.423-.819,22.675,22.675,0,0,1,7.83,1.271,23.339,23.339,0,0,1,6.531,3.7l-3.732,5.258a24.3,24.3,0,0,0-5.371-3.024,14.547,14.547,0,0,0-5.372-1.046,7.322,7.322,0,0,0-4.749,1.384,4.2,4.2,0,0,0-1.7,3.365A4.763,4.763,0,0,0,222.723,177.592Z"/><path class="cls-1" d="M279.321,184.377a12.1,12.1,0,0,1-3.4,4.24,15.164,15.164,0,0,1-5.045,2.573,21.165,21.165,0,0,1-6.178.876h-7.877v12.722h-6.9V165.21h15.605a19.68,19.68,0,0,1,6.248.933,13.294,13.294,0,0,1,4.75,2.685,11.9,11.9,0,0,1,3,4.185,13.734,13.734,0,0,1,1.045,5.484A13.215,13.215,0,0,1,279.321,184.377Zm-8.146-11.1a9.989,9.989,0,0,0-6.24-1.788h-8.114v14.3h8.114a9.345,9.345,0,0,0,6.267-1.958,6.482,6.482,0,0,0,2.3-5.194A6.347,6.347,0,0,0,271.175,173.273Z"/><path class="cls-1" d="M313.888,171.485H291.5v10.178h19.846v6.276H291.5v10.573H314.17v6.276H284.6V165.21h29.288Z"/><path class="cls-1" d="M350.062,201.367a21.121,21.121,0,0,1-3.59,2.205,18.147,18.147,0,0,1-4.213,1.414,24.717,24.717,0,0,1-5.061.481,20.1,20.1,0,0,1-8.028-1.583,19.7,19.7,0,0,1-6.36-4.326,19.9,19.9,0,0,1-4.213-6.474,20.985,20.985,0,0,1-1.527-8.028,21.2,21.2,0,0,1,1.5-7.973,19.713,19.713,0,0,1,10.659-10.94,20.587,20.587,0,0,1,8.254-1.612,25.112,25.112,0,0,1,4.948.452,20.212,20.212,0,0,1,4.1,1.273,19.332,19.332,0,0,1,3.449,1.95,27.179,27.179,0,0,1,3,2.488l-4.467,5.145a22.333,22.333,0,0,0-5.032-3.562,13.127,13.127,0,0,0-6.05-1.357,12.4,12.4,0,0,0-5.23,1.1,12.975,12.975,0,0,0-4.156,3,13.462,13.462,0,0,0-2.714,4.438,15.384,15.384,0,0,0-.961,5.484,15.62,15.62,0,0,0,.961,5.513,13.7,13.7,0,0,0,2.714,4.495,12.77,12.77,0,0,0,4.156,3.025,12.389,12.389,0,0,0,5.23,1.1,13.063,13.063,0,0,0,6.22-1.385,24.391,24.391,0,0,0,5.144-3.759l4.467,4.522A25.436,25.436,0,0,1,350.062,201.367Z"/><path class="cls-1" d="M375.131,204.788H368.12V171.655H355.568V165.21h32.116v6.445H375.131Z"/><path class="cls-1" d="M391.3,171.26v-6.05h26.177v5.2L406.454,181.72a20.315,20.315,0,0,1,4.382,1.046,12.426,12.426,0,0,1,3.731,2.091,9.75,9.75,0,0,1,2.574,3.308,10.8,10.8,0,0,1,.961,4.75,12.313,12.313,0,0,1-1.018,5.06,11.894,11.894,0,0,1-2.827,3.958,12.817,12.817,0,0,1-4.382,2.6,16.394,16.394,0,0,1-5.626.934,18.884,18.884,0,0,1-8.905-1.951,20.385,20.385,0,0,1-6.247-5l4.862-4.523a16.124,16.124,0,0,0,4.607,3.873,12.017,12.017,0,0,0,5.8,1.328,7.339,7.339,0,0,0,4.891-1.639,5.463,5.463,0,0,0,1.951-4.41,5.135,5.135,0,0,0-2.432-4.58,12.133,12.133,0,0,0-6.671-1.583h-3.223l-1.131-4.354,10.687-11.364Z"/><path class="cls-1" d="M447.311,174.256a20.921,20.921,0,0,0-4.042-2.544,10.728,10.728,0,0,0-4.552-.9,8.1,8.1,0,0,0-3.93.936,8.449,8.449,0,0,0-2.912,2.642,13.752,13.752,0,0,0-1.865,4,20.728,20.728,0,0,0-.792,5.026q.791-.733,1.7-1.471a9.791,9.791,0,0,1,2.064-1.271,13.793,13.793,0,0,1,2.544-.877,13.235,13.235,0,0,1,3.138-.339,17.351,17.351,0,0,1,5.4.819,12.912,12.912,0,0,1,4.41,2.432,11.37,11.37,0,0,1,2.968,3.93,12.511,12.511,0,0,1,1.075,5.314,13.1,13.1,0,0,1-1.131,5.485,12.809,12.809,0,0,1-3.11,4.269,14.284,14.284,0,0,1-4.665,2.771,16.673,16.673,0,0,1-5.8.989,17.128,17.128,0,0,1-6.361-1.074,13.709,13.709,0,0,1-4.665-3.054,15.558,15.558,0,0,1-2.035-2.516,14.15,14.15,0,0,1-1.526-3.222,22.066,22.066,0,0,1-.933-4.157,40.22,40.22,0,0,1-.312-5.314,32.185,32.185,0,0,1,1.075-8.51,20.85,20.85,0,0,1,3.194-6.841,15.2,15.2,0,0,1,5.315-4.58,15.723,15.723,0,0,1,7.378-1.668,17.66,17.66,0,0,1,6.672,1.15,21.965,21.965,0,0,1,5.428,3.22Zm-3.881,12.976a8.578,8.578,0,0,0-5.929-1.951,9.328,9.328,0,0,0-3.349.566,8.167,8.167,0,0,0-2.524,1.5,6.343,6.343,0,0,0-1.617,2.233,6.722,6.722,0,0,0-.567,2.714,6.645,6.645,0,0,0,2.242,5.145,8.56,8.56,0,0,0,5.986,2.036,7.975,7.975,0,0,0,5.843-2.065,6.954,6.954,0,0,0,2.1-5.173A6.4,6.4,0,0,0,443.43,187.232Z"/><path class="cls-1" d="M489.189,192.942a20.306,20.306,0,0,1-3.5,6.532,16.668,16.668,0,0,1-5.456,4.381,16.5,16.5,0,0,1-14.164.029,16.4,16.4,0,0,1-5.427-4.354,19.893,19.893,0,0,1-3.478-6.5,25.557,25.557,0,0,1-1.216-7.971,25.3,25.3,0,0,1,1.244-8,20.3,20.3,0,0,1,3.506-6.531,16.648,16.648,0,0,1,5.456-4.381,16.495,16.495,0,0,1,14.163-.029,16.419,16.419,0,0,1,5.428,4.354,19.964,19.964,0,0,1,3.478,6.5,25.626,25.626,0,0,1,1.216,7.972A25.3,25.3,0,0,1,489.189,192.942Zm-6.643-13.427a14.679,14.679,0,0,0-2.035-4.524,10.478,10.478,0,0,0-3.2-3.053,8.345,8.345,0,0,0-8.338-.028,10.092,10.092,0,0,0-3.139,3,14.692,14.692,0,0,0-2.007,4.5,22.18,22.18,0,0,0,0,11.111,15.031,15.031,0,0,0,2.035,4.523,10.044,10.044,0,0,0,3.195,3.053,8.067,8.067,0,0,0,4.184,1.1,7.915,7.915,0,0,0,4.155-1.1,9.989,9.989,0,0,0,3.139-3.025,15.12,15.12,0,0,0,2.007-4.495,20.732,20.732,0,0,0,.707-5.512A21.06,21.06,0,0,0,482.546,179.515Z"/><path class="cls-1" d="M240.732,145.59c-6.013-7.16-23.175-26.635-41.36-38.452l21.271-19.212,19.438,33.806,1.862-3.4c.334-.611,32.814-59.325,77.75-86.29-1.568,7.711-2.924,22.656,5.9,35.343C313.2,71.393,267.023,89.661,240.732,145.59Z"/><path class="cls-2" d="M309.805,10.779c-2.879,1.473-8.7,3.515-18.913,3.515a97.364,97.364,0,0,1-11.884-.8C257.451,10.812,246.17,2.845,242.722,0c-3.414,2.812-14.729,10.812-36.286,13.49a96.926,96.926,0,0,1-11.884.8c-10.176,0-16-2.042-18.879-3.515C173.8,36.119,172.66,63.066,197,101.863l10.946-9.875,72.673-65.577a100.558,100.558,0,0,0,10.277.536q2.359,0,4.519-.1l1.741.066-.1,1.741A146.158,146.158,0,0,1,295.377,46.3c4.687-3.983,9.541-7.766,14.562-11.247A123.168,123.168,0,0,0,309.805,10.779Zm-67.049,9.54s-25.809,12.587-50.915,9.641c0,0-.9,21.725,1.64,32.236a104.412,104.412,0,0,1-5.155-35.45l1.741.1h.1c1.373.066,2.845.1,4.385.1a110.58,110.58,0,0,0,13.624-.9c12.721-1.573,24.1-5.021,33.81-10.243l.77-.435Z"/><line class="cls-3" x1="283.055" y1="24.204" x2="280.611" y2="26.414"/></g></g></svg>